<svg width="255" height="255" viewBox="0 0 255 255" fill="none" xmlns="http://www.w3.org/2000/svg">
<path fill-rule="evenodd" clip-rule="evenodd" d="M139.513 253.633C146.449 252.966 153.422 251.718 160.375 249.855C167.887 247.842 175.06 245.196 181.853 241.989L212.855 221.252C223.801 211.298 232.878 199.536 239.732 186.579L139.513 253.633ZM240.677 184.759C244.347 177.541 247.335 169.968 249.58 162.141L113.182 253.401C121.153 254.31 129.28 254.465 137.468 253.812L240.677 184.759ZM253.675 141.552C252.937 148.048 251.698 154.441 249.99 160.678L111.676 253.22C105.2 252.403 98.8323 251.089 92.6235 249.307L253.675 141.552ZM253.813 140.271C254.394 134.648 254.6 128.949 254.412 123.21L75.3952 242.984C80.5752 245.321 85.9179 247.315 91.3877 248.945L253.813 140.271ZM252.744 106.476C253.615 111.683 254.151 116.883 254.368 122.05L74.3396 242.502C69.5932 240.309 64.9866 237.826 60.5475 235.069L252.744 106.476ZM252.561 105.41C251.916 101.743 251.105 98.0724 250.123 94.4075C249.819 93.2708 249.499 92.1419 249.166 91.0209L47.6118 225.875C51.4518 228.981 55.4658 231.859 59.6306 234.494L252.561 105.41ZM243.947 76.6638C245.815 80.9786 247.462 85.4381 248.868 90.0323L46.8115 225.222C43.1505 222.211 39.6512 218.99 36.3342 215.571L243.947 76.6638ZM243.544 75.7448C241.681 71.5343 239.605 67.4637 237.333 63.5424L26.7325 204.449C29.5218 208.088 32.4965 211.558 35.6385 214.848L243.544 75.7448ZM229.152 51.1666C231.906 54.8422 234.473 58.6862 236.834 62.6883L26.1337 203.661C23.3684 199.994 20.7901 196.158 18.4167 192.164L229.152 51.1666ZM228.556 50.3773C225.727 46.6624 222.705 43.1226 219.51 39.7689L11.5638 178.9C13.4661 183.185 15.5889 187.326 17.9147 191.311L228.556 50.3773ZM208.352 29.3854C212.008 32.3998 215.503 35.6238 218.815 39.0455L11.1605 177.981C9.28745 173.669 7.63665 169.213 6.2257 164.622L208.352 29.3854ZM207.553 28.7319C203.718 25.6223 199.709 22.7412 195.549 20.102L2.51596 149.255C3.15678 152.872 3.95914 156.492 4.92776 160.107C5.24499 161.291 5.57797 162.467 5.9264 163.634L207.553 28.7319ZM180.859 12.0811C185.6 14.2793 190.2 16.7664 194.633 19.5265L2.33193 148.189C1.45574 142.987 0.912864 137.791 0.689368 132.627L180.859 12.0811ZM179.805 11.5981C174.633 9.25669 169.298 7.25762 163.836 5.62143L1.21898 114.424C0.647051 120.042 0.449203 125.735 0.644581 131.469L179.805 11.5981ZM143.585 1.32151C150.05 2.14826 156.406 3.47051 162.603 5.25865L1.35587 113.144C2.08326 106.657 3.30948 100.272 5.00484 94.0417L143.585 1.32151ZM142.083 1.1385C134.135 0.218836 126.032 0.0478666 117.866 0.680255L14.2457 70.0097C10.6013 77.2148 7.63695 84.7728 5.41163 92.5812L142.083 1.1385ZM94.6755 4.65978C101.727 2.77046 108.798 1.51365 115.83 0.854551L15.1818 68.1951C21.8863 55.4499 30.7386 43.8546 41.4033 33.9901L74.1469 12.0823C80.6574 9.07435 87.5124 6.57913 94.6755 4.65978ZM67.1006 15.6085C60.0455 19.4191 53.4462 23.8531 47.3552 28.8196L67.1006 15.6085ZM206.237 226.867C201.028 230.987 195.46 234.723 189.564 238.019L206.237 226.867Z" fill="url(#paint0_linear_23_159)"/>
<defs>
<linearGradient id="paint0_linear_23_159" x1="195.613" y1="21.0327" x2="68.4053" y2="241.363" gradientUnits="userSpaceOnUse">
<stop stop-color="#4A47FF" stop-opacity="0.8"/>
<stop offset="0.485" stop-color="#FF7F35" stop-opacity="0.5"/>
<stop offset="1" stop-color="#C4C4C4" stop-opacity="0.2"/>
</linearGradient>
</defs>
</svg>
